# xmcd
#
# Track frame offsets:
#	150
#	37441
#	68497
#	97792
#	126026
#	158013
#	179892
#
# Disc length: 2968 seconds
#
# Revision: 1
# Processed by: cddbd v1.5.2PL0 Copyright (c) Steve Scherf et al.
# Submitted via: EZCDAudioConverter 9.1.1.1
#
DISCID=5a0b9607
DTITLE=Janysett McPherson - Blues Side (Live)
DYEAR=2014
DGENRE=Contemporary Pop
TTITLE0=Lush Life (Live)
TTITLE1=Save Your Love for Me (Live)
TTITLE2=Calla (Live)
TTITLE3=Mìrame (Live)
TTITLE4=Lovin' You (Live)
TTITLE5=Alby (Live)
TTITLE6=Conmigo No (Live)
EXTD=
EXTT0=
EXTT1=
EXTT2=
EXTT3=
EXTT4=
EXTT5=
EXTT6=
PLAYORDER=
